<?xml version="1.0" standalone="no"?>
<!DOCTYPE svg PUBLIC "-//W3C//DTD SVG 20010904//EN"
 "http://www.w3.org/TR/2001/REC-SVG-20010904/DTD/svg10.dtd">
<svg version="1.0" xmlns="http://www.w3.org/2000/svg"
 width="2048.000000pt" height="2048.000000pt" viewBox="0 0 2048.000000 2048.000000"
 preserveAspectRatio="xMidYMid meet">
<metadata>
Created by potrace 1.11, written by Peter Selinger 2001-2013
</metadata>
<g transform="translate(0.000000,2048.000000) scale(0.100000,-0.100000)"
fill="#000000" stroke="none">
<path d="M8220 20250 c-165 -26 -317 -129 -405 -275 -100 -167 -106 -383 -16
-551 l28 -52 -31 9 c-55 16 -190 29 -292 29 -234 -1 -470 -59 -628 -157 l-60
-36 -15 24 c-33 53 -181 189 -271 247 -325 212 -784 357 -949 299 -47 -17 -56
-15 -126 28 -51 32 -138 34 -194 6 -44 -23 -91 -74 -109 -117 -13 -29 -15 -30
-65 -26 -59 4 -129 -19 -212 -71 -213 -133 -533 -455 -632 -637 l-25 -45 -89
88 c-49 48 -91 87 -93 87 -2 0 -34 21 -72 46 -149 100 -327 170 -506 199 -100
16 -423 21 -432 7 -6 -10 -42 -9 -52 1 -4 4 -44 7 -88 7 -112 0 -167 -21 -239
-92 -31 -31 -70 -63 -85 -71 -92 -48 -144 -78 -156 -89 -8 -7 -27 -22 -42 -33
-16 -10 -70 -61 -121 -112 -50 -51 -98 -93 -106 -93 -20 0 -65 -54 -97 -117
-14 -26 -38 -66 -55 -87 -25 -33 -30 -51 -33 -108 -3 -49 0 -78 12 -103 10
-19 14 -39 11 -44 -3 -6 -31 -15 -63 -21 -90 -19 -161 -58 -228 -124 -71 -72
-109 -145 -126 -246 -11 -61 -10 -81 5 -148 23 -102 24 -116 10 -118 -7 -1
-16 -2 -21 -3 -12 -2 -71 -58 -66 -63 2 -3 -59 -69 -136 -149 -103 -106 -144
-156 -157 -189 -9 -25 -19 -49 -23 -55 -4 -5 -17 -39 -30 -75 -13 -36 -26 -69
-30 -75 -4 -5 -15 -32 -25 -60 -10 -27 -21 -54 -25 -60 -14 -20 -39 -111 -46
-169 -5 -48 -12 -64 -36 -85 l-30 -27 11 -309 c11 -282 14 -312 31 -330 19
-20 19 -22 0 -82 -95 -306 -73 -626 64 -908 85 -175 196 -318 332 -426 54 -43
65 -57 70 -90 5 -31 18 -50 65 -93 33 -29 59 -58 59 -65 0 -6 5 -11 10 -11 6
0 10 -6 10 -14 0 -7 96 -104 214 -214 l214 -201 -19 -68 c-11 -37 -24 -85 -30
-107 -8 -29 -13 -36 -22 -27 -6 6 -24 11 -40 11 -25 0 -47 -11 -142 -67 -11
-7 -29 -17 -40 -23 -11 -6 -33 -19 -50 -30 -16 -11 -56 -33 -87 -50 -78 -41
-227 -132 -319 -194 -100 -68 -111 -75 -134 -85 -28 -13 -322 -325 -393 -418
-82 -108 -143 -206 -202 -322 -47 -93 -110 -238 -110 -253 0 -4 -5 -19 -12
-35 -13 -34 -15 -38 -27 -86 -5 -21 -13 -43 -19 -50 -5 -7 -8 -22 -7 -34 1
-13 -2 -23 -6 -23 -4 0 -11 -27 -15 -60 -4 -33 -10 -60 -14 -60 -4 0 -8 -12
-8 -27 0 -57 -14 -170 -29 -236 -17 -76 -15 -101 17 -232 13 -49 24 -106 26
-125 2 -19 8 -57 14 -85 6 -27 11 -63 12 -78 1 -15 5 -30 10 -33 4 -3 8 -19 8
-36 0 -31 14 -87 31 -119 4 -9 11 -34 15 -55 3 -22 11 -45 17 -51 5 -7 6 -13
2 -13 -4 0 -1 -7 6 -17 8 -9 13 -18 12 -19 -3 -5 6 -32 22 -69 8 -16 37 -83
65 -147 69 -155 151 -302 268 -478 54 -80 99 -149 101 -153 1 -5 13 -19 25
-32 11 -13 26 -29 31 -37 56 -75 115 -145 190 -225 138 -146 333 -343 341
-343 3 0 22 -15 43 -34 149 -139 181 -171 177 -182 -3 -8 0 -11 8 -8 17 7 142
-123 138 -144 -2 -13 -1 -14 6 -4 7 10 14 7 33 -11 13 -12 65 -61 114 -107
139 -129 620 -594 715 -691 47 -47 135 -132 195 -189 61 -57 205 -196 320
-310 171 -167 210 -211 208 -231 -2 -32 -51 -207 -65 -233 -17 -31 -19 -60
-24 -311 l-5 -230 56 -84 c30 -46 55 -85 55 -87 0 -8 114 -171 136 -195 14
-14 45 -37 70 -50 65 -34 80 -43 99 -59 20 -16 50 -35 82 -49 11 -5 24 -15 28
-20 3 -6 22 -11 41 -11 38 0 37 3 23 -95 -5 -38 -11 -79 -12 -90 -2 -11 -5
-24 -8 -30 -5 -8 -14 -45 -23 -95 -1 -3 -4 -9 -8 -15 -3 -5 -5 -32 -4 -60 1
-27 -1 -52 -5 -55 -3 -3 -9 -48 -12 -100 -6 -89 -11 -131 -22 -190 -19 -96
-26 -143 -27 -202 -1 -38 -5 -68 -8 -68 -3 0 -7 -13 -8 -30 -1 -17 2 -30 8
-30 7 0 7 -7 -1 -21 -8 -16 -8 -23 1 -29 8 -5 9 -13 2 -26 -10 -20 -13 -322
-3 -339 3 -5 7 -28 8 -50 1 -22 5 -63 9 -90 8 -69 -13 -325 -30 -361 -8 -16
-35 -123 -61 -239 -36 -160 -53 -216 -70 -235 -27 -29 -31 -41 -50 -149 -26
-143 -42 -228 -120 -636 -42 -220 -82 -431 -88 -468 -12 -75 -9 -93 49 -276
74 -234 54 -200 213 -347 l144 -132 111 -21 c61 -11 186 -34 278 -51 236 -43
223 -44 299 43 36 39 90 105 122 145 32 39 60 72 63 72 23 0 286 -95 289 -104
1 -6 10 -76 19 -156 15 -123 20 -148 39 -167 16 -16 146 -58 504 -163 264 -77
494 -140 510 -140 19 0 38 10 55 28 25 27 83 107 104 143 6 10 19 28 29 39 10
11 23 29 29 39 32 56 89 131 99 131 14 0 208 -57 211 -62 1 -1 12 -86 24 -188
22 -180 23 -186 52 -212 17 -16 37 -28 44 -28 8 0 50 -13 93 -29 43 -15 123
-42 178 -59 55 -18 183 -59 285 -92 182 -59 237 -69 282 -51 13 5 84 26 160
46 94 26 142 43 156 58 18 21 62 125 112 264 13 35 25 61 29 59 10 -6 95 -43
113 -49 17 -6 21 -33 34 -229 7 -118 12 -124 144 -167 92 -31 127 -44 161 -61
9 -5 33 -12 53 -15 20 -4 39 -11 42 -16 3 -5 9 -7 14 -4 5 3 57 -11 117 -30
59 -19 125 -40 145 -46 43 -14 73 -11 387 30 223 30 225 31 258 63 18 17 33
36 33 41 0 4 11 32 24 60 13 29 27 63 31 77 4 14 11 30 15 35 4 6 17 39 30 75
13 36 26 70 30 75 4 6 11 21 15 35 4 14 16 43 26 65 10 22 29 69 42 105 l24
65 59 -3 c53 -3 971 -129 1104 -152 30 -5 130 -19 222 -31 l168 -22 9 -31 c5
-17 22 -76 36 -131 79 -295 117 -420 144 -472 49 -98 39 -94 272 -93 112 1
226 -1 253 -4 28 -2 54 -2 60 2 14 8 17 8 266 17 212 7 215 7 242 33 28 26 32
40 102 361 14 62 28 116 31 119 3 3 48 8 99 10 l94 4 22 -48 c12 -27 40 -98
62 -159 52 -143 82 -206 107 -229 21 -19 26 -19 244 -1 122 10 265 18 317 19
52 1 100 5 106 8 5 4 62 11 125 17 63 6 164 15 224 21 156 16 150 9 177 241
12 101 25 188 29 193 4 4 21 -21 39 -55 17 -35 44 -86 60 -114 16 -27 38 -68
49 -90 10 -22 30 -50 43 -62 23 -21 32 -21 433 -28 l410 -7 395 41 c217 23
546 57 730 77 315 32 365 40 830 134 272 56 565 114 650 131 85 17 180 39 210
49 30 10 89 28 130 39 168 45 824 242 834 250 6 4 61 34 121 66 61 32 144 77
185 99 41 23 87 47 102 55 64 33 58 14 164 501 14 63 34 153 45 200 19 82 29
134 105 560 19 107 50 282 69 388 19 105 50 279 69 385 19 105 53 296 75 422
23 127 59 329 81 450 21 121 58 324 80 450 23 127 44 253 47 281 l5 50 -50 42
c-67 57 -97 56 -148 -1 -44 -50 -124 -151 -140 -178 -19 -33 -46 -59 -56 -53
-5 3 -8 0 -6 -7 3 -16 -21 -53 -69 -108 l-32 -36 -1 1058 c0 760 -3 1064 -11
1080 -25 48 -82 97 -114 97 -21 0 -188 -89 -540 -284 -280 -156 -511 -283
-512 -282 -1 1 2 20 7 41 44 196 148 661 174 782 27 125 20 145 -75 201 -37
22 -103 30 -114 13 -3 -6 -43 -29 -88 -51 -45 -23 -131 -68 -192 -100 -60 -32
-139 -73 -175 -92 -113 -60 -243 -129 -308 -165 -35 -20 -65 -34 -67 -32 -1 2
-6 396 -10 876 l-8 872 -26 24 c-29 26 -104 57 -139 57 -13 0 -32 -4 -42 -10
-16 -9 -112 -121 -135 -159 -5 -9 -34 -46 -62 -81 -29 -36 -68 -85 -88 -110
-19 -25 -54 -69 -77 -99 -24 -29 -47 -61 -53 -70 -5 -9 -34 -46 -62 -81 -29
-36 -68 -85 -87 -110 -20 -25 -58 -73 -86 -107 -27 -34 -50 -65 -50 -68 0 -3
-24 -34 -52 -70 -29 -35 -70 -85 -90 -112 -20 -26 -60 -76 -88 -110 -27 -34
-50 -66 -50 -71 0 -5 -8 -16 -17 -23 -9 -8 -41 -47 -71 -87 -30 -41 -58 -70
-62 -65 -8 8 -39 86 -141 363 -28 74 -57 149 -64 165 -8 17 -37 93 -65 170
-28 77 -57 154 -64 170 -8 17 -17 39 -20 51 -12 41 -52 67 -111 72 -68 6 -86
-7 -126 -95 -16 -34 -29 -63 -29 -66 0 -3 -16 -39 -35 -80 -19 -41 -35 -78
-35 -82 0 -4 -16 -41 -35 -82 -19 -41 -35 -78 -35 -81 -1 -4 -9 -25 -20 -47
-11 -22 -19 -43 -20 -47 0 -4 -13 -35 -29 -70 -16 -35 -50 -112 -76 -173 -67
-159 -67 -160 -77 -138 -4 10 -39 65 -78 123 -39 58 -74 114 -79 125 -5 12
-16 27 -25 34 -9 7 -16 19 -16 26 0 7 -7 19 -16 26 -9 7 -20 22 -25 34 -5 11
-40 67 -79 125 -39 58 -74 114 -79 125 -5 11 -18 29 -30 39 -11 11 -21 23 -21
27 0 7 -42 75 -121 192 -22 32 -39 61 -39 66 0 4 -9 16 -20 26 -11 10 -20 24
-20 30 0 7 -7 19 -16 26 -9 7 -20 22 -25 34 -5 11 -40 67 -79 125 -39 58 -73
112 -77 120 -3 8 -20 30 -36 48 -30 31 -34 32 -107 32 -132 0 -116 126 -135
-1085 -9 -572 -18 -1042 -21 -1044 -2 -3 -125 24 -272 59 -147 34 -335 79
-418 98 -148 35 -152 37 -139 56 23 35 125 327 125 355 0 43 -40 74 -87 69
-31 -4 -67 9 -208 73 l-170 77 3 32 c2 17 -2 38 -9 46 -10 12 -10 17 -1 23 8
5 1 18 -23 41 -19 19 -35 39 -35 46 0 17 -47 46 -55 34 -3 -6 -14 -10 -24 -10
-9 0 -28 -14 -41 -30 -14 -17 -30 -37 -37 -44 -7 -8 -9 -17 -5 -21 11 -12
-299 146 -422 215 -100 56 -171 114 -160 131 4 8 -41 20 -85 23 -31 2 -149 74
-394 239 -136 91 -183 128 -195 154 -8 18 -23 35 -33 38 -9 3 -16 13 -15 22 1
22 -72 65 -102 59 -27 -4 -66 23 -217 153 -145 124 -271 247 -267 259 2 6 -6
21 -17 34 -12 12 -21 27 -21 34 0 6 -16 30 -36 53 -29 32 -43 41 -69 41 -29 0
-43 12 -120 99 -151 172 -294 363 -422 560 -57 89 -60 97 -45 111 9 8 17 22
17 30 -1 26 -26 78 -41 84 -8 3 -14 12 -14 21 0 8 -4 15 -9 15 -5 0 -14 13
-21 29 -18 45 -46 66 -93 70 -16 2 -240 494 -262 576 -4 17 -10 37 -12 45 -3
8 -6 26 -7 39 -2 14 -8 27 -14 29 -6 2 -9 9 -6 17 3 7 0 16 -5 20 -6 3 -9 11
-6 16 4 5 2 9 -4 9 -15 0 -9 44 8 57 9 6 19 9 23 7 9 -6 21 33 14 45 -4 5 0
11 6 14 10 3 10 7 2 18 -6 8 -10 24 -8 37 5 31 -32 106 -72 148 -19 19 -34 31
-34 27 0 -4 -5 -2 -12 5 -7 7 -20 12 -30 12 -10 0 -17 3 -16 8 1 8 -8 35 -24
68 -6 12 -11 35 -13 50 -5 56 -17 104 -27 104 -5 0 -7 4 -3 9 3 5 -2 30 -10
54 -8 25 -16 57 -17 71 -1 14 -6 26 -10 26 -4 0 -5 7 -2 15 4 8 1 15 -6 15 -6
0 -9 4 -5 9 3 5 0 15 -7 23 -7 7 -13 28 -13 46 1 17 -3 32 -7 32 -4 0 -7 8 -7
18 1 28 -6 49 -21 68 -8 9 -15 27 -16 38 -1 12 -6 34 -13 50 -6 16 -9 37 -6
46 3 10 2 21 -4 24 -5 3 -7 15 -4 26 3 11 0 20 -6 20 -7 0 -9 18 -8 50 2 28
-1 51 -7 53 -5 2 -11 17 -12 33 -1 16 -3 29 -4 29 -2 0 -8 30 -16 88 -6 40 -4
47 10 47 16 0 64 29 95 58 8 8 14 36 15 72 1 33 5 63 9 66 23 23 -8 94 -41 94
-6 0 -18 7 -27 17 -9 9 -38 18 -65 21 l-48 4 -6 77 c-10 117 -26 418 -26 497
l0 71 55 28 c30 15 55 32 55 37 0 5 4 7 9 3 5 -3 22 5 37 18 21 18 28 34 31
73 10 141 -16 191 -115 216 -24 6 -46 17 -49 25 -6 15 19 245 43 388 19 120
56 268 68 277 6 4 7 10 3 14 -4 4 -3 12 2 18 4 6 16 36 26 66 10 30 20 59 23
64 3 5 6 23 8 39 1 16 6 32 12 36 8 5 26 67 35 121 2 8 11 32 20 54 9 21 17
45 17 52 0 8 5 14 10 14 6 0 10 7 10 15 0 8 4 15 9 15 4 0 6 10 4 23 -3 14 2
29 11 36 9 8 16 29 16 48 0 20 6 36 15 39 8 3 17 22 21 42 4 21 20 62 37 92
21 39 30 72 33 113 2 55 0 61 -34 100 -20 23 -44 47 -52 54 -8 7 -11 13 -6 13
5 0 -1 8 -12 19 -12 10 -19 20 -16 23 3 3 -6 15 -20 26 -14 10 -22 23 -18 26
4 4 -1 12 -11 17 -9 6 -17 14 -17 19 0 10 -23 39 -81 104 l-36 40 56 26 c78
37 162 110 251 218 41 50 81 91 87 91 7 1 12 4 11 9 -3 12 25 62 34 62 5 0 7
4 4 9 -4 5 -3 11 1 13 11 4 74 96 77 111 1 7 14 35 29 63 47 91 95 218 106
278 6 33 12 61 14 63 2 2 28 -7 58 -21 210 -92 458 -45 623 120 135 135 193
329 155 516 -14 71 -94 232 -131 266 -17 15 -44 41 -60 59 -17 18 -35 30 -40
27 -4 -3 -8 5 -8 17 0 17 5 20 25 17 14 -3 28 -2 31 3 9 15 -16 141 -41 200
-52 130 -205 313 -345 416 -125 91 -312 172 -437 188 l-52 7 -6 66 c-11 112
-68 312 -106 372 -5 8 -12 22 -16 30 -4 8 -9 17 -12 20 -3 3 -17 25 -30 50
-14 25 -33 51 -43 58 -10 7 -18 19 -18 26 0 19 -152 165 -245 237 -94 72 -253
152 -345 174 -36 8 -102 15 -147 15 l-83 0 0 38 c-1 50 -38 156 -80 225 -115
190 -351 301 -570 267z m-5773 -7615 c7 -11 20 -36 29 -55 10 -19 27 -46 39
-60 13 -15 42 -95 75 -205 29 -99 63 -214 76 -255 13 -41 29 -93 35 -115 6
-22 17 -58 25 -80 7 -22 20 -145 28 -279 l15 -240 32 -32 c18 -18 45 -36 61
-39 22 -5 28 -12 28 -34 0 -41 36 -66 120 -86 105 -24 196 -59 252 -97 15 -10
60 -32 99 -48 63 -26 84 -30 169 -30 75 0 100 4 110 15 22 27 28 16 35 -67 3
-46 8 -99 11 -119 2 -19 6 -62 8 -95 3 -32 7 -70 10 -84 5 -27 18 -171 20
-235 1 -22 4 -44 8 -50 3 -5 6 -32 7 -60 1 -27 6 -81 11 -120 11 -77 47 -433
115 -1120 25 -247 46 -462 48 -477 l3 -27 -25 19 c-61 45 -209 166 -325 268
-46 39 -87 72 -91 72 -4 0 -44 34 -90 75 -45 41 -86 75 -90 75 -5 0 -43 32
-86 70 -42 39 -80 70 -84 70 -4 0 -45 33 -91 73 -46 39 -100 86 -121 102 -67
55 -728 668 -732 679 -2 6 -10 19 -19 29 -8 9 -20 26 -26 36 -6 10 -47 72 -91
137 -44 66 -82 124 -84 129 -2 6 -10 18 -19 28 -8 9 -20 26 -26 36 -6 10 -47
72 -91 137 -44 66 -82 123 -85 129 -3 5 -18 30 -33 54 -23 34 -48 120 -114
385 l-86 341 48 200 c26 110 64 268 83 351 l36 151 59 39 c33 22 68 44 78 50
11 6 27 18 37 27 10 10 23 17 29 17 5 0 18 9 28 20 10 11 21 20 26 20 4 0 51
29 104 65 53 36 100 65 104 65 4 0 18 11 31 25 13 14 27 25 31 25 11 0 184
116 198 134 15 18 11 21 48 -39z"/>
</g>
</svg>
